<svg xmlns="http://www.w3.org/2000/svg" height="434.645" width="982.677" xml:space="preserve" id="svg2" version="1.1"><defs id="defs6"><clipPath id="clipPath36" clipPathUnits="userSpaceOnUse"><path id="path34" d="M0 0h737.008v325.984H0z"/></clipPath><clipPath id="clipPath48" clipPathUnits="userSpaceOnUse"><path id="path46" d="M0 325.984h737.008V0H0z"/></clipPath></defs><g transform="matrix(1.33333 0 0 -1.33333 0 434.645)" id="g10"><g transform="translate(232.986 16.365)" id="g12"><path id="path14" d="M0 0v45.771h5.792L20.837 8.405l14.762 37.366h5.792V0h-4.944v40.19h-.141L19.636-1.271h-.141L2.967 39.837h-.142V0z" fill="#231f20" fill-opacity="1" fill-rule="nonzero" stroke="none"/></g><path id="path16" d="M294.934 62.136h4.944V16.365h-4.944z" fill="#231f20" fill-opacity="1" fill-rule="nonzero" stroke="none"/><g transform="translate(321.282 16.365)" id="g18"><path id="path20" d="M0 0v45.771h4.944V2.262h16.952V0z" fill="#231f20" fill-opacity="1" fill-rule="nonzero" stroke="none"/></g><g transform="translate(367.125 32.894)" id="g22"><path id="path24" d="M0 0h16.458L8.335 21.189zm9.324 30.515h.141l18.718-47.042h-5.086l-5.58 14.266H-.848l-5.721-14.266h-3.037z" fill="#231f20" fill-opacity="1" fill-rule="nonzero" stroke="none"/></g><g transform="translate(413.675 16.365)" id="g26"><path id="path28" d="M0 0v45.771h4.309l26.839-35.175h.143v35.175h2.824V-1.271h-.14L2.967 38.989h-.142V0z" fill="#231f20" fill-opacity="1" fill-rule="nonzero" stroke="none"/></g><g id="g30"><g clip-path="url(#clipPath36)" id="g32"><g transform="translate(389.056 191.502)" id="g38"><path id="path40" d="M0 0c14.338 0 26.233 11.907 26.233 26.791 0 14.635-11.722 26.718-26.067 26.718-15.36 0-26.588-12.614-26.588-26.718C-26.422 12.256-14.657 0 0 0m227.392 95.497c-50.826 0-73.709-44.439-73.709-75.85 0-32.205 23.145-75.845 73.709-75.845 50.837 0 73.73 44.177 73.73 75.049 0 34.867-24.76 76.646-73.73 76.646m0-178.049c-58.824 0-102.454 48.182-102.454 102.199 0 53.498 42.314 102.203 102.454 102.203 58.551 0 102.461-46.586 102.461-102.734 0-53.762-43.91-101.668-102.461-101.668M98.632-23.194c0-10.919-1.86-20.761-4.794-27.953-8.775-20.752-27.941-31.405-49.494-31.405-25.554 0-49.507 16.779-54.302 43.125h29.544c6.12-15.976 18.364-16.771 25.019-16.771 9.841 0 19.42 5.051 23.152 16.771 1.06 3.983 2.129 9.312 2.129 14.633v142.909h28.746zm-165.987 7.977c0-22.347-7.455-38.585-19.966-50.556-12.24-10.116-27.945-16.779-46.037-16.779-18.098 0-33.806 6.663-46.045 16.779-12.512 11.971-19.962 28.209-19.962 50.556v133.332h28.746V-14.417c0-36.465 26.617-41.781 37.261-41.781 10.64 0 37.254 5.316 37.254 41.781v132.532h28.749zm-186.531 133.332h28.742v-196.93h-28.742zM-370.955-78.816v196.931h28.75V-52.469h68.404v-26.347z" fill="#231f20" fill-opacity="1" fill-rule="nonzero" stroke="none"/></g></g></g><g id="g42"><g clip-path="url(#clipPath48)" id="g44"><g transform="translate(472.02 39.25)" id="g50"><path id="path52" d="M0 0c0-14.833 8.477-22.249 16.175-22.249 7.699 0 16.176 7.416 16.176 22.249 0 14.833-8.477 22.25-16.176 22.25C8.477 22.25 0 14.833 0 0m38 0c0-13.632-9.535-24.155-21.825-24.155S-5.65-13.632-5.65 0c0 13.633 9.535 24.157 21.825 24.157S38 13.633 38 0" fill="#231f20" fill-opacity="1" fill-rule="nonzero" stroke="none"/></g></g></g></g></svg>